<?xml version="1.0" encoding="utf-8"?>
<!-- Generator: Adobe Illustrator 28.4.1, SVG Export Plug-In . SVG Version: 6.00 Build 0)  -->
<svg version="1.1" id="Capa_1" xmlns="http://www.w3.org/2000/svg" xmlns:xlink="http://www.w3.org/1999/xlink" x="0px" y="0px"
	 viewBox="0 0 800 800" style="enable-background:new 0 0 800 800;" xml:space="preserve">
<style type="text/css">
	.st0{fill:#3A7BC1;}
</style>
<path class="st0" d="M755.4,399.8c-31.5,0-41.8-23.2-47.5-34.2c-14.6-28.5-37.6-72.1-77.8-95.3c-15.5,24.7-21.7,37.1-27.8,75.8
	c-24.7-125.2,21.3-209.1,28-246.1c-45.3,11.5-111.5,54.4-132.9,112.2c-11.1-6.6-44.4-12.3-54.3-12.3H326.9
	C181.8,201.3,65.2,320.1,66.6,465.2c0,0.4,0,0.8,0,1.2c0,69.8,33.7,133.1,88.6,180.6c7.8,6.8,23.8,23.7,18.5,51
	c-5.4,27.3-14.5,72.6-14.5,72.6l145,29c0,0,5.3-21.2,8.9-44.4c3.6-23.3,22.3-26.6,44.3-24.5c13.9,1.3,28.1,2.3,42.5,2.3
	c17.6,0,34.8-1.2,51.6-3.4c9.8-1.3,29.3-1.7,33.8,18.9c4.5,20.6,10.2,51.2,10.2,51.2l145-29c0,0-12.5-57.8-15.7-75.3
	c-3.3-17.6,9.6-31,15.9-36.5c21.4-18.8,39.3-40.3,48.7-61.4c5.7-12.7,25.1-30.9,52.4-30.9h57.8V399.8L755.4,399.8L755.4,399.8z
	 M616.4,499.8c-27.6,0-50-22.4-50-50c0-27.6,22.4-50,50-50l0,0c27.6,0,50,22.4,50,50C666.4,477.4,644,499.8,616.4,499.8z"/>
<path class="st0" d="M87.6,463.9c0,0-87.6,19.8-87.6-76c0-64.1,77.6-71.6,77.6-22.1c-2.1-15.4-44.2-16.5-44.2,17.4
	c0,41.6,59.8,43.7,59.8-0.5C123.6,369.7,113.3,465,87.6,463.9z M454.8,166.6c7.3-15.2,11.7-32,11.7-50C466.5,52.2,414.3,0,349.9,0
	S233.2,52.2,233.2,116.6c0,0,0,0,0,0c0,18,4.4,34.8,11.7,50H454.8z"/>
</svg>
